<svg xmlns="http://www.w3.org/2000/svg" viewBox="0 0 288 156.98666" height="156.987" width="288"><path d="M128.164 65.912c3.901 0 7.05 3.167 7.05 7.057 0 3.9-3.149 7.069-7.05 7.069a7.066 7.066 0 0 1-7.068-7.07c0-3.889 3.158-7.056 7.068-7.056M288 89.952c-11.108 11.057-45.743 41.455-54.91 67.035l-11.347-2.92c3.706-10.598 14.88-27.072 27.33-39.79-2.648 1.002-5.412 1.373-7.626 1.373-3.367 0-5.987-1.013-7.556-2.923-1.134-1.37-1.706-3.168-1.706-5.294 0-.461.032-.93.099-1.45-10.933 6.656-19.736 9.667-28.348 9.667-6.7 0-12.35-2.923-14.95-8.045-10.855 5.383-21.265 8.045-29.969 8.045-8.101 0-14.632-3.206-17.624-9.055-10.978 6.173-20.311 9.055-27.741 9.055-4.276 0-7.667-1.188-9.847-3.427-1.602-1.65-2.449-3.879-2.563-6.45-7.04 4.633-17.311 9.877-27.862 9.877-10.771 0-18.01-3.702-23.614-7.366-8.95 4.952-18.795 7.366-29.206 7.366-7.868 0-20.56-3.28-20.56-14.559 0-9.112 9.504-15.276 22.213-15.276 10.812 0 21.224 4.558 27.762 9.283 6.204-4.935 12.714-11.85 20.39-21.608a96.046 96.046 0 0 1-4.956.133c-14.706 0-26.987-4.331-33.688-11.921-3.622-4.098-5.33-8.907-5.33-14.08 0-20.458 25.827-36.329 48.426-38.66 1.498 3.386 2.834 5.993 4.21 9.1C56.699 20.65 38.104 33.866 38.104 46.78c0 8.486 9.545 17.008 29.793 17.008 3.468 0 6.955-.327 10.385-.806C96.156 38.312 123.552 0 147.119 0c6.972 0 10.617 4.236 10.617 9.913 0 11.667-10.03 24.221-16.561 30.775-10.277 10.32-28.847 25.673-54.792 30.759-10.097 14.036-18.393 23.348-26.69 30.071 5.035 2.719 9.743 4.378 15.37 4.378 13.962 0 27.507-12.79 38.09-23.62l.373-.36 8.253 6.448-.38.45c-4.681 5.363-8.993 11.035-8.993 14.208 0 2.416 2.036 2.892 3.787 2.892 5.353 0 13.59-3.458 23.294-9.427v-.082c1.07-23.972 33.784-60.63 53.641-60.63 5.605 0 8.83 2.786 8.83 7.687 0 12.013-20.734 37.785-50.89 57.495v.017c1.564 3.355 5.153 4.973 11.247 4.973 4.762 0 14.061-2.122 25.122-7.904 1.283-12.422 8.322-25.753 17.24-35.258 8.956-9.517 18.994-15.708 27.672-15.708 5.348 0 8.51 2.953 8.51 7.575 0 10.477-12.163 28.399-41.478 47.16 1.298 2.517 3.819 4.102 7.731 4.102 8.728 0 24.11-9.317 36.093-20.777l8.598 6.685c-3.671 4.455-7.387 9.362-7.268 12.178.033.909.649 1.52 2.093 1.52 8.828 0 22.733-11.653 33.157-21.942zM95.384 58.67c12.938-4.15 25.213-12.822 34.363-21.881 8.469-8.382 15.241-18.337 15.241-23.261 0-1.127-.805-1.803-1.824-1.803-3.916 0-11.351 5.203-21.35 15.214-7.79 7.815-16.863 18.467-26.43 31.731M40.09 101.444c-4.767-3.306-12.139-6.197-18.717-6.197-6.384 0-10.471 2.504-10.471 5.67 0 3.638 4.956 5.232 10.505 5.232 6.728 0 12.835-1.82 18.683-4.705M150.916 89.46c18.05-13.637 37.005-33.49 39.03-41.64.069-.267.131-.528.12-.775-.027-.534-.315-1.014-.997-1.014-5.709 0-32.166 24.394-38.153 43.429m47.867 2.185c1.666-1.188 3.469-2.577 5.153-3.907 12.963-10.374 22.868-21.737 24.823-28.024.07-.205.245-.783.245-1.248 0-.65-.308-1.106-.905-1.106-5.943 0-25.046 19.011-29.666 34.398v.064l.35-.177" fill="#fff"/></svg>