<?xml version="1.0" encoding="UTF-8" standalone="no"?>
<svg
   xmlns:dc="http://purl.org/dc/elements/1.1/"
   xmlns:cc="http://creativecommons.org/ns#"
   xmlns:rdf="http://www.w3.org/1999/02/22-rdf-syntax-ns#"
   xmlns:svg="http://www.w3.org/2000/svg"
   xmlns="http://www.w3.org/2000/svg"
   viewBox="0 0 288 156.98666"
   height="156.98666"
   width="288"
   xml:space="preserve"
   id="svg2"
   version="1.1"><metadata
     id="metadata8"><rdf:RDF><cc:Work
         rdf:about=""><dc:format>image/svg+xml</dc:format><dc:type
           rdf:resource="http://purl.org/dc/dcmitype/StillImage" /></cc:Work></rdf:RDF></metadata><defs
     id="defs6" /><g
     transform="matrix(1.3333333,0,0,-1.3333333,0,156.98667)"
     id="g10"><g
       transform="scale(0.1)"
       id="g12"><path
         id="path14"
         style="fill:#ffffff;fill-opacity:1;fill-rule:nonzero;stroke:none"
         d="m 961.23,683.062 c 29.258,0 52.87,-23.757 52.87,-52.929 0,-29.254 -23.612,-53.016 -52.87,-53.016 -29.328,0 -53.011,23.762 -53.011,53.016 0,29.172 23.683,52.929 53.011,52.929 M 2160,502.754 C 2076.69,419.832 1816.93,191.844 1748.17,0 l -85.1,21.8906 c 27.8,79.4884 111.6,203.0474 204.98,298.4294 -19.86,-7.511 -40.59,-10.293 -57.2,-10.293 -25.25,0 -44.9,7.598 -56.67,21.922 -8.5,10.274 -12.79,23.762 -12.79,39.707 0,3.457 0.24,6.973 0.74,10.871 -82,-49.922 -148.02,-72.5 -212.61,-72.5 -50.25,0 -92.63,21.922 -112.12,60.332 -81.42,-40.371 -159.49,-60.332 -224.77,-60.332 -60.76,0 -109.74,24.043 -132.18,67.911 -82.337,-46.301 -152.337,-67.911 -208.063,-67.911 -32.067,0 -57.5,8.907 -73.852,25.703 -12.012,12.372 -18.363,29.09 -19.223,48.368 -52.796,-34.746 -129.832,-74.071 -208.96,-74.071 -80.786,0 -135.071,27.766 -177.11,55.243 C 306.113,328.133 232.281,310.027 154.199,310.027 95.1914,310.027 0,334.629 0,419.215 c 0,68.34 71.2812,114.57 166.594,114.57 81.094,0 159.183,-34.18 208.218,-69.617 46.532,37.012 95.356,88.867 152.926,162.059 -12.656,-0.653 -24.996,-0.997 -37.172,-0.997 -110.296,0 -202.402,32.481 -252.656,89.407 -27.164,30.73 -39.98,66.804 -39.98,105.593 0,153.442 193.703,272.47 363.199,289.95 11.234,-25.39 21.254,-44.94 31.57,-68.24 -167.457,-19.42 -306.922,-118.545 -306.922,-215.389 0,-63.645 71.59,-127.559 223.453,-127.559 26.004,0 52.157,2.449 77.883,6.043 134.059,185.02 339.528,472.365 516.277,472.365 52.29,0 79.63,-31.77 79.63,-74.35 0,-87.5 -75.22,-181.655 -124.21,-230.808 C 981.738,794.84 842.457,679.695 647.871,641.551 572.148,536.277 509.922,466.434 447.703,416.012 485.461,395.625 520.77,383.18 562.969,383.18 c 104.719,0 206.304,95.918 285.679,177.148 l 2.797,2.695 61.895,-48.355 -2.852,-3.371 c -35.105,-40.227 -67.445,-82.766 -67.445,-106.563 0,-18.117 15.269,-21.687 28.402,-21.687 40.149,0 101.922,25.933 174.705,70.703 v 0.613 c 8.03,179.793 253.38,454.727 402.31,454.727 42.04,0 66.23,-20.899 66.23,-57.656 0,-90.098 -155.51,-283.387 -381.68,-431.211 v -0.129 c 11.73,-25.164 38.65,-37.293 84.35,-37.293 35.72,0 105.46,15.91 188.42,59.277 9.62,93.164 62.41,193.145 129.3,264.434 67.17,71.375 142.45,117.812 207.54,117.812 40.11,0 63.82,-22.148 63.82,-56.816 0,-78.574 -91.22,-212.988 -311.08,-353.703 9.73,-18.875 28.64,-30.758 57.98,-30.758 65.46,0 180.82,69.879 270.7,155.828 l 64.48,-50.137 c -27.53,-33.418 -55.4,-70.215 -54.51,-91.34 0.25,-6.812 4.87,-11.394 15.7,-11.394 66.21,0 170.5,87.391 248.68,164.558 z M 715.383,737.379 c 97.035,31.133 189.097,96.172 257.722,164.113 63.515,62.86 114.305,137.528 114.305,174.458 0,8.45 -6.04,13.52 -13.68,13.52 -29.37,0 -85.136,-39.02 -160.125,-114.103 C 855.176,916.754 787.133,836.863 715.383,737.379 M 300.668,416.57 c -35.75,24.793 -91.043,46.477 -140.379,46.477 -47.879,0 -78.5312,-18.781 -78.5312,-42.524 0,-27.285 37.1722,-39.238 78.7892,-39.238 50.461,0 96.262,13.645 140.121,35.285 m 831.202,89.883 c 135.38,102.274 277.54,251.172 292.73,312.297 0.51,2 0.98,3.961 0.9,5.816 -0.21,4.004 -2.37,7.602 -7.48,7.602 -42.82,0 -241.25,-182.953 -286.15,-325.715 m 359,-16.387 c 12.5,8.907 26.02,19.325 38.65,29.297 97.22,77.805 171.51,163.028 186.17,210.184 0.53,1.535 1.84,5.871 1.84,9.355 0,4.883 -2.31,8.301 -6.79,8.301 -44.57,0 -187.84,-142.586 -222.49,-257.988 v -0.477 l 2.62,1.328" /></g></g></svg>